<svg width="297" height="156" viewBox="0 0 297 156" fill="none" xmlns="http://www.w3.org/2000/svg">
<path d="M19 105L297 105" stroke="#FFFDEC" stroke-width="0.5" stroke-dasharray="2 2"/>
<path d="M19 72L297 72" stroke="#FFFDEC" stroke-width="0.5" stroke-dasharray="2 2"/>
<path d="M19 39L297 39" stroke="#FFFDEC" stroke-width="0.5" stroke-dasharray="2 2"/>
<path d="M19 6L297 6.00002" stroke="#FFFDEC" stroke-width="0.5" stroke-dasharray="2 2"/>
<path d="M26 85C26 83.3431 27.3431 82 29 82V82C30.6569 82 32 83.3431 32 85V138H26V85Z" fill="#EBA0C9"/>
<path d="M38 56C38 54.3431 39.3431 53 41 53V53C42.6569 53 44 54.3431 44 56V138H38V56Z" fill="#FFFDEC"/>
<path d="M67 124C67 122.343 68.3431 121 70 121V121C71.6569 121 73 122.343 73 124V138H67V124Z" fill="#EBA0C9"/>
<path d="M79 94C79 92.3431 80.3431 91 82 91V91C83.6569 91 85 92.3431 85 94V138H79V94Z" fill="#FFFDEC"/>
<path d="M108 58C108 56.3431 109.343 55 111 55V55C112.657 55 114 56.3431 114 58V138H108V58Z" fill="#EBA0C9"/>
<path d="M120 91C120 89.3431 121.343 88 123 88V88C124.657 88 126 89.3431 126 91V138H120V91Z" fill="#FFFDEC"/>
<path d="M149 131C149 129.343 150.343 128 152 128V128C153.657 128 155 129.343 155 131V138H149V131Z" fill="#EBA0C9"/>
<path d="M161 78C161 76.3431 162.343 75 164 75V75C165.657 75 167 76.3431 167 78V138H161V78Z" fill="#FFFDEC"/>
<path d="M190 40C190 38.3431 191.343 37 193 37V37C194.657 37 196 38.3431 196 40V138H190V40Z" fill="#EBA0C9"/>
<path d="M202 49C202 47.3431 203.343 46 205 46V46C206.657 46 208 47.3431 208 49V138H202V49Z" fill="#FFFDEC"/>
<path d="M231 111C231 109.343 232.343 108 234 108V108C235.657 108 237 109.343 237 111V138H231V111Z" fill="#EBA0C9"/>
<path d="M243 133C243 131.343 244.343 130 246 130V130C247.657 130 249 131.343 249 133V138H243V133Z" fill="#FFFDEC"/>
<path d="M272 109C272 107.343 273.343 106 275 106V106C276.657 106 278 107.343 278 109V138H272V109Z" fill="#EBA0C9"/>
<path d="M284 68C284 66.3431 285.343 65 287 65V65C288.657 65 290 66.3431 290 68V138H284V68Z" fill="#FFFDEC"/>
<path d="M2 138L297 138" stroke="#FFFDEC"/>
<path d="M32.135 143.76V153H30.945V146.329L31.008 145.307L30.756 146.434L28.53 152.475H27.347L25.121 146.434L24.876 145.307L24.932 146.329V153H23.735V143.76H25.331L27.851 151.012L27.935 151.481L28.026 151.012L30.553 143.76H32.135ZM36.7173 153.168C36.1246 153.168 35.5973 153.035 35.1353 152.769C34.6779 152.503 34.3186 152.144 34.0573 151.691C33.7959 151.234 33.6653 150.718 33.6653 150.144C33.6653 149.57 33.7959 149.052 34.0573 148.59C34.3186 148.128 34.6779 147.762 35.1353 147.491C35.5973 147.22 36.1246 147.085 36.7173 147.085C37.3053 147.085 37.8256 147.22 38.2783 147.491C38.7356 147.762 39.0926 148.128 39.3493 148.59C39.6059 149.052 39.7343 149.57 39.7343 150.144C39.7343 150.718 39.6059 151.234 39.3493 151.691C39.0926 152.144 38.7356 152.503 38.2783 152.769C37.8256 153.035 37.3053 153.168 36.7173 153.168ZM36.7173 152.125C37.0906 152.125 37.4149 152.039 37.6903 151.866C37.9703 151.693 38.1873 151.458 38.3413 151.159C38.4953 150.856 38.5723 150.515 38.5723 150.137C38.5723 149.759 38.4953 149.418 38.3413 149.115C38.1873 148.812 37.9703 148.571 37.6903 148.394C37.4149 148.217 37.0906 148.128 36.7173 148.128C36.3393 148.128 36.0103 148.217 35.7303 148.394C35.4503 148.571 35.2309 148.812 35.0723 149.115C34.9183 149.418 34.8413 149.759 34.8413 150.137C34.8413 150.515 34.9183 150.856 35.0723 151.159C35.2309 151.458 35.4503 151.693 35.7303 151.866C36.0103 152.039 36.3393 152.125 36.7173 152.125ZM44.2976 147.085C44.6756 147.085 45.0419 147.164 45.3966 147.323C45.7559 147.482 46.0499 147.734 46.2786 148.079C46.5119 148.42 46.6286 148.865 46.6286 149.416V153H45.3966V149.654C45.3966 149.085 45.2636 148.672 44.9976 148.415C44.7316 148.154 44.3886 148.023 43.9686 148.023C43.6933 148.023 43.4273 148.102 43.1706 148.261C42.9186 148.415 42.7109 148.63 42.5476 148.905C42.3843 149.176 42.3026 149.484 42.3026 149.829V153H41.0846V147.253H42.3026V148.275C42.3446 148.116 42.4589 147.944 42.6456 147.757C42.8323 147.57 43.0703 147.412 43.3596 147.281C43.6489 147.15 43.9616 147.085 44.2976 147.085Z" fill="#FFFDEC"/>
<path d="M1.932 100.251L0.329 101.161V99.985L2.45 98.76H3.136V108H1.932V100.251ZM8.5283 102.253H9.9983L7.0303 104.99L10.1943 108H8.7033L6.0363 105.452V108H4.8183V98.368H6.0363V104.528L8.5283 102.253Z" fill="#FFFDEC"/>
<path d="M1.603 72.956C1.631 73.04 1.68467 73.1473 1.764 73.278C1.848 73.4087 1.96233 73.5393 2.107 73.67C2.25167 73.796 2.43367 73.9033 2.653 73.992C2.87233 74.0807 3.136 74.125 3.444 74.125C4.06467 74.125 4.55 73.9267 4.9 73.53C5.25 73.1287 5.42267 72.6013 5.418 71.948C5.41333 71.3413 5.25233 70.8723 4.935 70.541C4.61767 70.2097 4.19533 70.044 3.668 70.044C3.34133 70.044 3.05433 70.1047 2.807 70.226C2.56433 70.3427 2.366 70.485 2.212 70.653C2.06267 70.821 1.95767 70.9797 1.897 71.129L0.84 70.772L1.631 65.76H6.237V66.838H2.667L2.233 69.715C2.25633 69.673 2.33567 69.5983 2.471 69.491C2.611 69.379 2.807 69.2763 3.059 69.183C3.311 69.085 3.61667 69.036 3.976 69.036C4.44267 69.036 4.87667 69.141 5.278 69.351C5.67933 69.5563 6.00367 69.8713 6.251 70.296C6.49833 70.716 6.62433 71.248 6.629 71.892C6.629 72.536 6.503 73.1053 6.251 73.6C6.00367 74.09 5.64433 74.475 5.173 74.755C4.70167 75.0303 4.13933 75.168 3.486 75.168C3.00533 75.168 2.59 75.1073 2.24 74.986C1.89467 74.86 1.60533 74.7037 1.372 74.517C1.13867 74.3303 0.956667 74.1437 0.826 73.957C0.695333 73.7657 0.604333 73.6047 0.553 73.474L1.603 72.956ZM11.6455 69.253H13.1155L10.1475 71.99L13.3115 75H11.8205L9.15348 72.452V75H7.93548V65.368H9.15348V71.528L11.6455 69.253Z" fill="#FFFDEC"/>
<path d="M1.932 34.251L0.329 35.161V33.985L2.45 32.76H3.136V42H1.932V34.251ZM4.7413 37.387C4.7413 36.5657 4.8393 35.854 5.0353 35.252C5.23596 34.65 5.50196 34.153 5.8333 33.761C6.1693 33.3643 6.54263 33.0703 6.9533 32.879C7.36863 32.6877 7.79563 32.592 8.2343 32.592C8.67296 32.592 9.09996 32.6877 9.5153 32.879C9.93063 33.0703 10.3016 33.3643 10.6283 33.761C10.9596 34.153 11.221 34.65 11.4123 35.252C11.6083 35.854 11.7063 36.5657 11.7063 37.387C11.7063 38.2223 11.6083 38.9433 11.4123 39.55C11.221 40.152 10.9596 40.6467 10.6283 41.034C10.3016 41.4167 9.93063 41.7013 9.5153 41.888C9.09996 42.0747 8.67296 42.168 8.2343 42.168C7.79563 42.168 7.36863 42.0747 6.9533 41.888C6.54263 41.7013 6.1693 41.4167 5.8333 41.034C5.50196 40.6467 5.23596 40.152 5.0353 39.55C4.8393 38.9433 4.7413 38.2223 4.7413 37.387ZM5.9663 37.387C5.9663 38.213 6.06896 38.9013 6.2743 39.452C6.47963 39.998 6.75263 40.4063 7.0933 40.677C7.43863 40.9477 7.81896 41.083 8.2343 41.083C8.64963 41.083 9.02763 40.9477 9.3683 40.677C9.70896 40.4063 9.98196 39.998 10.1873 39.452C10.3926 38.9013 10.4953 38.213 10.4953 37.387C10.4953 36.5703 10.3926 35.889 10.1873 35.343C9.98196 34.7923 9.70896 34.377 9.3683 34.097C9.02763 33.817 8.64963 33.677 8.2343 33.677C7.81896 33.677 7.43863 33.817 7.0933 34.097C6.75263 34.377 6.47963 34.7923 6.2743 35.343C6.06896 35.889 5.9663 36.5703 5.9663 37.387ZM16.6631 36.253H18.1331L15.1651 38.99L18.3291 42H16.8381L14.1711 39.452V42H12.9531V32.368H14.1711V38.528L16.6631 36.253Z" fill="#FFFDEC"/>
<path d="M1.932 2.251L0.329 3.161V1.985L2.45 0.76H3.136V10H1.932V2.251ZM5.8823 7.956C5.9103 8.04 5.96396 8.14733 6.0433 8.278C6.1273 8.40867 6.24163 8.53933 6.3863 8.67C6.53096 8.796 6.71296 8.90333 6.9323 8.992C7.15163 9.08067 7.4153 9.125 7.7233 9.125C8.34396 9.125 8.8293 8.92667 9.1793 8.53C9.5293 8.12867 9.70196 7.60133 9.6973 6.948C9.69263 6.34133 9.53163 5.87233 9.2143 5.541C8.89696 5.20967 8.47463 5.044 7.9473 5.044C7.62063 5.044 7.33363 5.10467 7.0863 5.226C6.84363 5.34267 6.6453 5.485 6.4913 5.653C6.34196 5.821 6.23696 5.97967 6.1763 6.129L5.1193 5.772L5.9103 0.76H10.5163V1.838H6.9463L6.5123 4.715C6.53563 4.673 6.61496 4.59833 6.7503 4.491C6.8903 4.379 7.0863 4.27633 7.3383 4.183C7.5903 4.085 7.89596 4.036 8.2553 4.036C8.72196 4.036 9.15596 4.141 9.5573 4.351C9.95863 4.55633 10.283 4.87133 10.5303 5.296C10.7776 5.716 10.9036 6.248 10.9083 6.892C10.9083 7.536 10.7823 8.10533 10.5303 8.6C10.283 9.09 9.92363 9.475 9.4523 9.755C8.98096 10.0303 8.41863 10.168 7.7653 10.168C7.28463 10.168 6.8693 10.1073 6.5193 9.986C6.17396 9.86 5.88463 9.70367 5.6513 9.517C5.41796 9.33033 5.23596 9.14367 5.1053 8.957C4.97463 8.76567 4.88363 8.60467 4.8323 8.474L5.8823 7.956ZM15.9248 4.253H17.3948L14.4268 6.99L17.5908 10H16.0998L13.4328 7.452V10H12.2148V0.368H13.4328V6.528L15.9248 4.253Z" fill="#FFFDEC"/>
<path d="M68.681 144.845H66.189V143.76H72.377V144.845H69.885V153H68.681V144.845ZM74.0147 150.151C74.0147 150.753 74.143 151.234 74.3997 151.593C74.661 151.948 75.06 152.125 75.5967 152.125C76.138 152.125 76.537 151.948 76.7937 151.593C77.0503 151.234 77.1787 150.753 77.1787 150.151V147.253H78.3827V150.319C78.3827 150.879 78.273 151.374 78.0537 151.803C77.839 152.232 77.524 152.568 77.1087 152.811C76.698 153.049 76.194 153.168 75.5967 153.168C75.004 153.168 74.5 153.049 74.0847 152.811C73.674 152.568 73.359 152.232 73.1397 151.803C72.925 151.374 72.8177 150.879 72.8177 150.319V147.253H74.0147V150.151ZM80.8007 150.375C80.8054 150.72 80.8801 151.035 81.0247 151.32C81.1694 151.605 81.3841 151.831 81.6687 151.999C81.9581 152.167 82.3127 152.251 82.7327 152.251C83.0874 152.251 83.3884 152.2 83.6357 152.097C83.8877 151.99 84.0931 151.864 84.2517 151.719C84.4104 151.57 84.5247 151.437 84.5947 151.32L85.1897 152.055C85.0357 152.279 84.8467 152.475 84.6227 152.643C84.4034 152.811 84.1351 152.939 83.8177 153.028C83.5004 153.121 83.1131 153.168 82.6557 153.168C82.0397 153.168 81.5054 153.037 81.0527 152.776C80.6047 152.51 80.2594 152.144 80.0167 151.677C79.7741 151.206 79.6527 150.667 79.6527 150.06C79.6527 149.5 79.7671 148.996 79.9957 148.548C80.2244 148.095 80.5557 147.738 80.9897 147.477C81.4284 147.216 81.9557 147.085 82.5717 147.085C83.1364 147.085 83.6264 147.204 84.0417 147.442C84.4617 147.675 84.7861 148.007 85.0147 148.436C85.2481 148.865 85.3647 149.379 85.3647 149.976C85.3647 150.013 85.3624 150.081 85.3577 150.179C85.3531 150.272 85.3484 150.338 85.3437 150.375H80.8007ZM84.2027 149.458C84.1981 149.267 84.1421 149.057 84.0347 148.828C83.9321 148.599 83.7641 148.403 83.5307 148.24C83.2974 148.077 82.9824 147.995 82.5857 147.995C82.1751 147.995 81.8437 148.074 81.5917 148.233C81.3444 148.392 81.1624 148.585 81.0457 148.814C80.9291 149.038 80.8614 149.253 80.8427 149.458H84.2027Z" fill="#FFFDEC"/>
<path d="M112.883 153H111.378L109.418 145.153H109.649L107.682 153H106.177L104.231 143.76H105.596L107.003 151.439H106.982L108.984 143.76H110.076L112.078 151.439H112.057L113.471 143.76H114.829L112.883 153ZM116.586 150.375C116.591 150.72 116.665 151.035 116.81 151.32C116.955 151.605 117.169 151.831 117.454 151.999C117.743 152.167 118.098 152.251 118.518 152.251C118.873 152.251 119.174 152.2 119.421 152.097C119.673 151.99 119.878 151.864 120.037 151.719C120.196 151.57 120.31 151.437 120.38 151.32L120.975 152.055C120.821 152.279 120.632 152.475 120.408 152.643C120.189 152.811 119.92 152.939 119.603 153.028C119.286 153.121 118.898 153.168 118.441 153.168C117.825 153.168 117.291 153.037 116.838 152.776C116.39 152.51 116.045 152.144 115.802 151.677C115.559 151.206 115.438 150.667 115.438 150.06C115.438 149.5 115.552 148.996 115.781 148.548C116.01 148.095 116.341 147.738 116.775 147.477C117.214 147.216 117.741 147.085 118.357 147.085C118.922 147.085 119.412 147.204 119.827 147.442C120.247 147.675 120.571 148.007 120.8 148.436C121.033 148.865 121.15 149.379 121.15 149.976C121.15 150.013 121.148 150.081 121.143 150.179C121.138 150.272 121.134 150.338 121.129 150.375H116.586ZM119.988 149.458C119.983 149.267 119.927 149.057 119.82 148.828C119.717 148.599 119.549 148.403 119.316 148.24C119.083 148.077 118.768 147.995 118.371 147.995C117.96 147.995 117.629 148.074 117.377 148.233C117.13 148.392 116.948 148.585 116.831 148.814C116.714 149.038 116.647 149.253 116.628 149.458H119.988ZM125.029 153.168C124.501 153.168 124.028 153.042 123.608 152.79C123.192 152.538 122.863 152.186 122.621 151.733C122.383 151.276 122.264 150.741 122.264 150.13C122.264 149.519 122.383 148.987 122.621 148.534C122.863 148.077 123.192 147.722 123.608 147.47C124.028 147.213 124.501 147.085 125.029 147.085C125.453 147.085 125.827 147.16 126.149 147.309C126.471 147.454 126.727 147.624 126.919 147.82C127.11 148.016 127.22 148.186 127.248 148.331V143.368H128.473V153H127.269V151.88C127.217 152.039 127.089 152.218 126.884 152.419C126.683 152.62 126.424 152.795 126.107 152.944C125.789 153.093 125.43 153.168 125.029 153.168ZM125.309 152.16C125.663 152.16 125.988 152.076 126.282 151.908C126.576 151.74 126.809 151.504 126.982 151.201C127.159 150.893 127.248 150.536 127.248 150.13C127.248 149.724 127.159 149.369 126.982 149.066C126.809 148.758 126.576 148.52 126.282 148.352C125.988 148.179 125.663 148.093 125.309 148.093C124.982 148.093 124.679 148.177 124.399 148.345C124.119 148.513 123.892 148.749 123.72 149.052C123.552 149.355 123.468 149.715 123.468 150.13C123.468 150.545 123.552 150.905 123.72 151.208C123.892 151.511 124.119 151.747 124.399 151.915C124.679 152.078 124.982 152.16 125.309 152.16Z" fill="#FFFDEC"/>
<path d="M148.681 144.845H146.189V143.76H152.377V144.845H149.885V153H148.681V144.845ZM156.908 147.085C157.286 147.085 157.652 147.164 158.007 147.323C158.366 147.482 158.66 147.734 158.889 148.079C159.122 148.42 159.239 148.865 159.239 149.416V153H158.007V149.654C158.007 149.085 157.876 148.672 157.615 148.415C157.358 148.154 157.02 148.023 156.6 148.023C156.32 148.023 156.052 148.102 155.795 148.261C155.538 148.415 155.326 148.63 155.158 148.905C154.995 149.176 154.913 149.484 154.913 149.829V153H153.681V143.368H154.913V148.275C154.955 148.116 155.067 147.944 155.249 147.757C155.436 147.57 155.674 147.412 155.963 147.281C156.252 147.15 156.567 147.085 156.908 147.085ZM162.026 150.151C162.026 150.753 162.155 151.234 162.411 151.593C162.673 151.948 163.072 152.125 163.608 152.125C164.15 152.125 164.549 151.948 164.805 151.593C165.062 151.234 165.19 150.753 165.19 150.151V147.253H166.394V150.319C166.394 150.879 166.285 151.374 166.065 151.803C165.851 152.232 165.536 152.568 165.12 152.811C164.71 153.049 164.206 153.168 163.608 153.168C163.016 153.168 162.512 153.049 162.096 152.811C161.686 152.568 161.371 152.232 161.151 151.803C160.937 151.374 160.829 150.879 160.829 150.319V147.253H162.026V150.151Z" fill="#FFFDEC"/>
<path d="M190.77 143.76H195.586V144.845H191.96V147.827H195.341V148.905H191.96V153H190.77V143.76ZM198.303 153H197.092V147.253H198.303V148.247H198.268C198.291 148.126 198.378 147.974 198.527 147.792C198.676 147.61 198.882 147.447 199.143 147.302C199.404 147.157 199.717 147.085 200.081 147.085C200.347 147.085 200.58 147.122 200.781 147.197C200.986 147.267 201.131 147.337 201.215 147.407L200.718 148.415C200.653 148.35 200.538 148.284 200.375 148.219C200.212 148.149 200.009 148.114 199.766 148.114C199.458 148.114 199.194 148.21 198.975 148.401C198.756 148.592 198.588 148.823 198.471 149.094C198.359 149.36 198.303 149.607 198.303 149.836V153ZM202.134 153V147.253H203.352V153H202.134ZM202.757 145.286C202.537 145.286 202.348 145.209 202.19 145.055C202.036 144.896 201.959 144.707 201.959 144.488C201.959 144.269 202.036 144.08 202.19 143.921C202.348 143.762 202.537 143.683 202.757 143.683C202.901 143.683 203.034 143.72 203.156 143.795C203.282 143.87 203.382 143.968 203.457 144.089C203.531 144.206 203.569 144.339 203.569 144.488C203.569 144.707 203.489 144.896 203.331 145.055C203.172 145.209 202.981 145.286 202.757 145.286Z" fill="#FFFDEC"/>
<path d="M232.647 143.592C233.179 143.592 233.636 143.653 234.019 143.774C234.406 143.895 234.71 144.024 234.929 144.159C235.153 144.294 235.286 144.383 235.328 144.425L234.712 145.412C234.642 145.351 234.518 145.265 234.341 145.153C234.164 145.036 233.942 144.934 233.676 144.845C233.41 144.752 233.107 144.705 232.766 144.705C232.239 144.705 231.821 144.812 231.513 145.027C231.21 145.237 231.058 145.536 231.058 145.923C231.058 146.184 231.137 146.415 231.296 146.616C231.459 146.812 231.688 146.992 231.982 147.155C232.276 147.318 232.619 147.486 233.011 147.659C233.333 147.794 233.648 147.948 233.956 148.121C234.269 148.294 234.551 148.497 234.803 148.73C235.06 148.963 235.263 149.234 235.412 149.542C235.566 149.85 235.643 150.205 235.643 150.606C235.643 151.003 235.561 151.36 235.398 151.677C235.239 151.994 235.013 152.265 234.719 152.489C234.43 152.708 234.091 152.876 233.704 152.993C233.317 153.11 232.899 153.168 232.451 153.168C231.886 153.168 231.375 153.098 230.918 152.958C230.465 152.818 230.099 152.671 229.819 152.517C229.544 152.363 229.385 152.267 229.343 152.23L229.994 151.201C230.05 151.248 230.153 151.318 230.302 151.411C230.451 151.5 230.636 151.593 230.855 151.691C231.074 151.789 231.322 151.873 231.597 151.943C231.872 152.008 232.166 152.041 232.479 152.041C233.104 152.041 233.578 151.901 233.9 151.621C234.222 151.341 234.383 150.982 234.383 150.543C234.383 150.207 234.28 149.918 234.075 149.675C233.87 149.432 233.597 149.215 233.256 149.024C232.915 148.833 232.54 148.648 232.129 148.471C231.709 148.28 231.324 148.07 230.974 147.841C230.624 147.612 230.342 147.339 230.127 147.022C229.917 146.7 229.812 146.313 229.812 145.86C229.812 145.412 229.938 145.018 230.19 144.677C230.447 144.336 230.79 144.07 231.219 143.879C231.653 143.688 232.129 143.592 232.647 143.592ZM241.751 153V151.88C241.714 151.997 241.604 152.158 241.422 152.363C241.245 152.568 241 152.755 240.687 152.923C240.379 153.086 240.015 153.168 239.595 153.168C239.063 153.168 238.58 153.042 238.146 152.79C237.717 152.538 237.374 152.186 237.117 151.733C236.865 151.276 236.739 150.741 236.739 150.13C236.739 149.519 236.865 148.987 237.117 148.534C237.374 148.077 237.717 147.722 238.146 147.47C238.58 147.213 239.063 147.085 239.595 147.085C240.011 147.085 240.37 147.16 240.673 147.309C240.981 147.458 241.226 147.631 241.408 147.827C241.595 148.023 241.705 148.191 241.737 148.331V147.253H242.941V153H241.751ZM237.943 150.13C237.943 150.545 238.034 150.905 238.216 151.208C238.398 151.511 238.634 151.747 238.923 151.915C239.217 152.078 239.53 152.16 239.861 152.16C240.216 152.16 240.533 152.076 240.813 151.908C241.093 151.74 241.315 151.504 241.478 151.201C241.642 150.893 241.723 150.536 241.723 150.13C241.723 149.724 241.642 149.369 241.478 149.066C241.315 148.758 241.093 148.52 240.813 148.352C240.533 148.179 240.216 148.093 239.861 148.093C239.53 148.093 239.217 148.177 238.923 148.345C238.634 148.513 238.398 148.749 238.216 149.052C238.034 149.355 237.943 149.715 237.943 150.13ZM244.079 147.253H245.206V144.894H246.417V147.253H247.894V148.296H246.417V151.138C246.417 151.474 246.475 151.721 246.592 151.88C246.713 152.039 246.874 152.118 247.075 152.118C247.252 152.118 247.39 152.085 247.488 152.02C247.586 151.955 247.644 151.91 247.663 151.887L248.146 152.783C248.118 152.806 248.043 152.851 247.922 152.916C247.801 152.981 247.644 153.04 247.453 153.091C247.262 153.142 247.038 153.168 246.781 153.168C246.333 153.168 245.957 153.033 245.654 152.762C245.355 152.487 245.206 152.053 245.206 151.46V148.296H244.079V147.253Z" fill="#FFFDEC"/>
<path d="M272.647 143.592C273.179 143.592 273.636 143.653 274.019 143.774C274.406 143.895 274.71 144.024 274.929 144.159C275.153 144.294 275.286 144.383 275.328 144.425L274.712 145.412C274.642 145.351 274.518 145.265 274.341 145.153C274.164 145.036 273.942 144.934 273.676 144.845C273.41 144.752 273.107 144.705 272.766 144.705C272.239 144.705 271.821 144.812 271.513 145.027C271.21 145.237 271.058 145.536 271.058 145.923C271.058 146.184 271.137 146.415 271.296 146.616C271.459 146.812 271.688 146.992 271.982 147.155C272.276 147.318 272.619 147.486 273.011 147.659C273.333 147.794 273.648 147.948 273.956 148.121C274.269 148.294 274.551 148.497 274.803 148.73C275.06 148.963 275.263 149.234 275.412 149.542C275.566 149.85 275.643 150.205 275.643 150.606C275.643 151.003 275.561 151.36 275.398 151.677C275.239 151.994 275.013 152.265 274.719 152.489C274.43 152.708 274.091 152.876 273.704 152.993C273.317 153.11 272.899 153.168 272.451 153.168C271.886 153.168 271.375 153.098 270.918 152.958C270.465 152.818 270.099 152.671 269.819 152.517C269.544 152.363 269.385 152.267 269.343 152.23L269.994 151.201C270.05 151.248 270.153 151.318 270.302 151.411C270.451 151.5 270.636 151.593 270.855 151.691C271.074 151.789 271.322 151.873 271.597 151.943C271.872 152.008 272.166 152.041 272.479 152.041C273.104 152.041 273.578 151.901 273.9 151.621C274.222 151.341 274.383 150.982 274.383 150.543C274.383 150.207 274.28 149.918 274.075 149.675C273.87 149.432 273.597 149.215 273.256 149.024C272.915 148.833 272.54 148.648 272.129 148.471C271.709 148.28 271.324 148.07 270.974 147.841C270.624 147.612 270.342 147.339 270.127 147.022C269.917 146.7 269.812 146.313 269.812 145.86C269.812 145.412 269.938 145.018 270.19 144.677C270.447 144.336 270.79 144.07 271.219 143.879C271.653 143.688 272.129 143.592 272.647 143.592ZM278.272 150.151C278.272 150.753 278.401 151.234 278.657 151.593C278.919 151.948 279.318 152.125 279.854 152.125C280.396 152.125 280.795 151.948 281.051 151.593C281.308 151.234 281.436 150.753 281.436 150.151V147.253H282.64V150.319C282.64 150.879 282.531 151.374 282.311 151.803C282.097 152.232 281.782 152.568 281.366 152.811C280.956 153.049 280.452 153.168 279.854 153.168C279.262 153.168 278.758 153.049 278.342 152.811C277.932 152.568 277.617 152.232 277.397 151.803C277.183 151.374 277.075 150.879 277.075 150.319V147.253H278.272V150.151ZM287.509 147.085C287.887 147.085 288.253 147.164 288.608 147.323C288.967 147.482 289.261 147.734 289.49 148.079C289.723 148.42 289.84 148.865 289.84 149.416V153H288.608V149.654C288.608 149.085 288.475 148.672 288.209 148.415C287.943 148.154 287.6 148.023 287.18 148.023C286.904 148.023 286.638 148.102 286.382 148.261C286.13 148.415 285.922 148.63 285.759 148.905C285.595 149.176 285.514 149.484 285.514 149.829V153H284.296V147.253H285.514V148.275C285.556 148.116 285.67 147.944 285.857 147.757C286.043 147.57 286.281 147.412 286.571 147.281C286.86 147.15 287.173 147.085 287.509 147.085Z" fill="#FFFDEC"/>
</svg>
