<svg width="20" height="18" viewBox="0 0 20 18" fill="none" xmlns="http://www.w3.org/2000/svg">
<path d="M3.59847 7.04477H17.0414M4.18339 0.791992V4.00778M7.96111 0.791992V4.00778M12.6813 0.791992V4.00778M16.4591 0.791992V4.00778M2.08891 2.64382H18.5535C18.7473 2.64382 18.9331 2.72078 19.0701 2.85778C19.2071 2.99478 19.2841 3.18058 19.2841 3.37433V15.1443C19.2841 15.5412 19.1264 15.9219 18.8457 16.2026C18.565 16.4834 18.1842 16.641 17.7873 16.641H2.85518C2.45821 16.641 2.0775 16.4834 1.7968 16.2026C1.51609 15.9219 1.3584 15.5412 1.3584 15.1443V3.37433C1.3584 3.18058 1.43536 2.99478 1.57236 2.85778C1.70936 2.72078 1.89517 2.64382 2.08891 2.64382Z" stroke="#093030" stroke-width="1.27712" stroke-linecap="round" stroke-linejoin="round"/>
</svg>
