<svg width="21" height="21" viewBox="0 0 21 21" fill="none" xmlns="http://www.w3.org/2000/svg">
<path d="M11.6896 19.997V14.6725H14.4419C14.4553 14.6725 14.4681 14.6671 14.4776 14.6576C14.487 14.6481 14.4923 14.6353 14.4923 14.6218V11.221C14.4923 11.2076 14.487 11.1947 14.4776 11.1852C14.4681 11.1757 14.4553 11.1704 14.4419 11.1704H11.6925V9.61292C11.6933 9.33673 11.8029 9.07208 11.9974 8.87679C12.1919 8.68149 12.4555 8.57143 12.7306 8.57064H14.4894V5.40806C14.4856 5.32215 14.4496 5.24086 14.3885 5.18061C14.3274 5.12037 14.2458 5.08565 14.1601 5.08346H11.5502C10.6298 5.08346 9.74721 5.45055 9.09644 6.10396C8.44567 6.75738 8.08006 7.6436 8.08006 8.56767C8.08006 8.56767 8.04448 9.07391 8.01779 11.1674H5.34848C5.33524 11.1674 5.32212 11.17 5.30989 11.1751C5.29765 11.1802 5.28654 11.1877 5.27718 11.1971C5.26781 11.2065 5.26038 11.2176 5.25531 11.2299C5.25024 11.2422 5.24763 11.2554 5.24763 11.2687V14.5682C5.24763 14.5815 5.25024 14.5947 5.25531 14.607C5.26038 14.6193 5.26781 14.6304 5.27718 14.6398C5.28654 14.6492 5.29765 14.6567 5.30989 14.6618C5.32212 14.6669 5.33524 14.6695 5.34848 14.6695H7.99702V19.732M8.01185 19.7409C5.84596 19.1525 3.95777 17.8125 2.68237 15.959C1.40696 14.1054 0.82684 11.8581 1.04497 9.61589C1.25704 7.44425 2.20359 5.41107 3.72702 3.85491C5.25045 2.29874 7.2588 1.31349 9.41769 1.06323C10.7481 0.908583 12.096 1.03839 13.3729 1.44414C14.6497 1.84988 15.8266 2.52237 16.8261 3.41739C17.8256 4.31241 18.6252 5.40971 19.1722 6.63714C19.7192 7.86457 20.0013 9.19435 20 10.5391C20.0015 12.8612 19.1585 15.104 17.6293 16.8461C16.1002 18.5882 13.9901 19.7097 11.6955 20" stroke="#093030" stroke-width="1.3" stroke-linecap="round" stroke-linejoin="round"/>
</svg>
