<svg width="24" height="22" viewBox="0 0 24 22" fill="none" xmlns="http://www.w3.org/2000/svg">
<path d="M2.02286 9.94613C2.21701 7.5101 3.32179 5.23662 5.11711 3.57867C6.91242 1.92073 9.26646 1.00004 11.7102 1C14.1499 1.00035 16.5003 1.91796 18.2949 3.57076C20.0894 5.22355 21.1969 7.49069 21.3976 9.92212M20.749 14.2116C19.8372 16.5221 18.8273 17.8148 15.9451 19.6338M20.749 14.2116C20.481 14.1299 20.2562 13.9455 20.1237 13.6986C19.9912 13.4516 19.9619 13.1623 20.0421 12.8939C20.2234 12.2941 20.3148 11.6708 20.3132 11.0442C20.3132 10.9056 20.3406 10.7683 20.3937 10.6403C20.4469 10.5122 20.5248 10.396 20.623 10.2981C20.7212 10.2002 20.8377 10.1227 20.9659 10.07C21.0941 10.0172 21.2315 9.99029 21.3701 9.99074C21.5086 9.99029 21.6458 10.0172 21.7738 10.07C21.9018 10.1228 22.0181 10.2004 22.1161 10.2983C22.214 10.3962 22.2916 10.5125 22.3444 10.6405C22.3971 10.7686 22.4241 10.9057 22.4236 11.0442C22.4302 11.8767 22.3146 12.7057 22.0804 13.5047C22.0155 13.7218 21.8823 13.9122 21.7005 14.0476C21.5188 14.183 21.2982 14.2561 21.0716 14.2562C20.9625 14.2562 20.854 14.2411 20.749 14.2116ZM11.8441 12.4786V11.7923C11.8443 11.4945 11.9243 11.2021 12.0758 10.9456C12.2273 10.6891 12.4324 10.4871 12.7054 10.3339C12.9784 10.1807 13.2056 9.95752 13.3637 9.68729C13.5217 9.41706 13.6048 9.1096 13.6045 8.79655C13.5974 8.3322 13.4095 7.88888 13.0808 7.56081C12.7521 7.23275 12.3084 7.04578 11.8441 7.03958C11.3781 7.03958 10.9312 7.2247 10.6017 7.5542C10.2722 7.88369 10.0871 8.33058 10.0871 8.79655V9.18433M2.35229 14.2562C2.12567 14.2561 1.90511 14.183 1.72337 14.0476C1.54162 13.9122 1.40839 13.7218 1.34343 13.5047C1.10926 12.7057 0.993641 11.8767 1.00027 11.0442C1.00027 10.9056 1.02762 10.7683 1.08078 10.6403C1.13394 10.5122 1.21185 10.396 1.31004 10.2981C1.40823 10.2002 1.52478 10.1227 1.65299 10.07C1.7812 10.0172 1.91855 9.99029 2.05718 9.99074C2.19566 9.99029 2.33285 10.0172 2.46087 10.07C2.58889 10.1228 2.70523 10.2004 2.80315 10.2983C2.90107 10.3962 2.97862 10.5125 3.03141 10.6405C3.08419 10.7686 3.11116 10.9057 3.1107 11.0442C3.11079 11.6707 3.20208 12.2937 3.38177 12.8939C3.42194 13.0268 3.43552 13.1663 3.42173 13.3045C3.40794 13.4427 3.36708 13.5768 3.30143 13.6992C3.23578 13.8216 3.14662 13.9298 3.03911 14.0177C2.93161 14.1057 2.80786 14.1716 2.67489 14.2116C2.57001 14.2417 2.46139 14.2567 2.35229 14.2562ZM16.4698 15.1038C17.1152 14.4594 17.6168 13.6856 17.9418 12.8334C18.2667 11.9812 18.4075 11.0699 18.355 10.1594C18.3025 9.24888 18.0578 8.35979 17.6371 7.5506C17.2164 6.74141 16.6291 6.03044 15.9139 5.46446C14.7768 4.56703 13.3718 4.0764 11.9232 4.0708C10.4745 4.0652 9.06581 4.54497 7.92175 5.43359C6.69466 6.39285 5.85493 7.76267 5.55675 9.2914C5.25857 10.8201 5.52197 12.4051 6.29862 13.7552L5.13191 17.1628C5.12519 17.182 5.12396 17.2028 5.12839 17.2228C5.13282 17.2427 5.14274 17.261 5.157 17.2756C5.17126 17.2902 5.1893 17.3006 5.20911 17.3055C5.22893 17.3104 5.2497 17.3097 5.26914 17.3034L8.68016 16.1333C9.9109 16.8428 11.3413 17.1265 12.7497 16.9404C14.158 16.7543 15.4657 16.1087 16.4698 15.1038ZM16.034 20.0521C16.034 20.6188 15.5746 21.0782 15.008 21.0782C14.4413 21.0782 13.9819 20.6188 13.9819 20.0521C13.9819 19.4855 14.4413 19.0261 15.008 19.0261C15.5746 19.0261 16.034 19.4855 16.034 20.0521Z" stroke="#093030" stroke-width="1.3" stroke-miterlimit="10"/>
</svg>
