<svg width="34" height="33" viewBox="0 0 34 33" fill="none" xmlns="http://www.w3.org/2000/svg">
<path d="M30.4605 21.0394C29.1465 24.3691 27.6911 26.2319 23.5376 28.8534L30.4605 21.0394Z" fill="#F1FFF3"/>
<path d="M3.47405 14.8924C3.75385 11.3818 5.34596 8.10544 7.93321 5.71615C10.5205 3.32687 13.9129 2.00006 17.4346 2C20.9505 2.0005 24.3377 3.32289 26.9238 5.70475C29.51 8.0866 31.106 11.3538 31.3952 14.8578M30.4605 21.0394C29.1465 24.3691 27.6911 26.2319 23.5376 28.8534M30.4605 21.0394C30.0742 20.9217 29.7503 20.6558 29.5594 20.3C29.3685 19.9442 29.3262 19.5273 29.4418 19.1404C29.7031 18.2761 29.8348 17.3778 29.8325 16.4748C29.8325 16.275 29.8719 16.0772 29.9485 15.8927C30.0251 15.7082 30.1374 15.5406 30.2789 15.3996C30.4204 15.2585 30.5884 15.1468 30.7731 15.0708C30.9579 14.9948 31.1558 14.956 31.3556 14.9567C31.5552 14.956 31.7529 14.9948 31.9374 15.0709C32.1219 15.1469 32.2895 15.2588 32.4306 15.3999C32.5717 15.541 32.6835 15.7086 32.7596 15.8931C32.8356 16.0776 32.8744 16.2753 32.8738 16.4748C32.8833 17.6746 32.7167 18.8693 32.3793 20.0206C32.2856 20.3335 32.0936 20.6079 31.8317 20.803C31.5698 20.9981 31.252 21.1036 30.9254 21.1037C30.7682 21.1036 30.6118 21.0819 30.4605 21.0394ZM17.6275 18.542V17.5529C17.6278 17.1237 17.7431 16.7023 17.9614 16.3327C18.1797 15.9631 18.4753 15.6719 18.8688 15.4512C19.2622 15.2304 19.5897 14.9088 19.8174 14.5193C20.0452 14.1299 20.1649 13.6868 20.1644 13.2357C20.1542 12.5665 19.8835 11.9276 19.4098 11.4549C18.9361 10.9821 18.2967 10.7126 17.6275 10.7037C16.956 10.7037 16.3119 10.9705 15.8371 11.4453C15.3623 11.9202 15.0955 12.5642 15.0955 13.2357V13.7945M3.94881 21.1037C3.62221 21.1036 3.30437 20.9981 3.04245 20.803C2.78053 20.6079 2.58854 20.3335 2.49492 20.0206C2.15745 18.8693 1.99084 17.6746 2.00039 16.4748C2.00039 16.275 2.03981 16.0772 2.11641 15.8927C2.19302 15.7082 2.3053 15.5406 2.44681 15.3996C2.58831 15.2585 2.75626 15.1468 2.94103 15.0708C3.1258 14.9948 3.32373 14.956 3.52352 14.9567C3.72307 14.956 3.92079 14.9948 4.10528 15.0709C4.28977 15.1469 4.45743 15.2588 4.59854 15.3999C4.73965 15.541 4.85142 15.7086 4.92748 15.8931C5.00355 16.0776 5.04241 16.2753 5.04176 16.4748C5.04188 17.3776 5.17345 18.2755 5.43239 19.1404C5.49028 19.3319 5.50986 19.5331 5.48998 19.7322C5.47011 19.9313 5.41122 20.1246 5.31661 20.301C5.222 20.4773 5.09351 20.6333 4.93859 20.76C4.78366 20.8867 4.60532 20.9817 4.4137 21.0394C4.26256 21.0827 4.10602 21.1044 3.94881 21.1037ZM24.2938 22.3252C25.2238 21.3964 25.9467 20.2813 26.4149 19.0532C26.8832 17.8251 27.0861 16.5119 27.0105 15.1997C26.9348 13.8875 26.5822 12.6063 25.9759 11.4401C25.3696 10.274 24.5233 9.24941 23.4926 8.43378C21.8538 7.14049 19.8291 6.43343 17.7415 6.42536C15.6539 6.41729 13.6237 7.1087 11.975 8.38929C10.2066 9.77169 8.9965 11.7458 8.56678 13.9488C8.13707 16.1519 8.51666 18.436 9.63589 20.3816L7.95454 25.2923C7.94485 25.3201 7.94308 25.3501 7.94947 25.3788C7.95586 25.4075 7.97015 25.4338 7.9907 25.4549C8.01125 25.476 8.03724 25.4909 8.0658 25.498C8.09435 25.5051 8.12429 25.504 8.1523 25.495L13.068 23.8087C14.8416 24.8312 16.903 25.2401 18.9326 24.9718C20.9622 24.7036 22.8466 23.7733 24.2938 22.3252ZM23.6657 29.4563C23.6657 30.2729 23.0037 30.9349 22.187 30.9349C21.3704 30.9349 20.7084 30.2729 20.7084 29.4563C20.7084 28.6396 21.3704 27.9776 22.187 27.9776C23.0037 27.9776 23.6657 28.6396 23.6657 29.4563Z" stroke="#F1FFF3" stroke-width="2.22242" stroke-miterlimit="10"/>
</svg>
