<svg width="25" height="25" viewBox="0 0 25 25" fill="none" xmlns="http://www.w3.org/2000/svg">
<rect x="1.04167" y="23.9583" width="22.9167" height="22.9167" rx="5.20833" transform="rotate(-90 1.04167 23.9583)" stroke="#EBA0C9" stroke-width="2.08333"/>
<path d="M19.7917 6.25C19.7917 5.6747 19.3253 5.20833 18.75 5.20833L9.375 5.20833C8.7997 5.20833 8.33333 5.6747 8.33333 6.25C8.33333 6.8253 8.7997 7.29167 9.375 7.29167L17.7083 7.29167L17.7083 15.625C17.7083 16.2003 18.1747 16.6667 18.75 16.6667C19.3253 16.6667 19.7917 16.2003 19.7917 15.625L19.7917 6.25ZM6.98657 19.4866L19.4866 6.98657L18.0134 5.51343L5.51343 18.0134L6.98657 19.4866Z" fill="#EBA0C9"/>
</svg>
