<svg width="22" height="31" viewBox="0 0 22 31" fill="none" xmlns="http://www.w3.org/2000/svg">
<path d="M15.788 20.5286L19.733 16.2746C19.9056 16.0641 20 15.8004 20 15.5283C20 15.2561 19.9056 14.9924 19.733 14.782L15.788 10.5279M19.9895 15.5118H8.33187M15.9065 26.3937V26.5514C15.9065 27.1967 15.6501 27.8155 15.1939 28.2717C14.7376 28.7279 14.1187 28.9842 13.4735 28.9842H4.43276C3.78754 28.9842 3.16881 28.7279 2.71257 28.2717C2.25633 27.8155 2 27.1967 2 26.5514V4.43278C2 3.78756 2.25633 3.16879 2.71257 2.71255C3.16881 2.25631 3.78754 2 4.43276 2H13.4735C14.1187 2 14.7376 2.25631 15.1939 2.71255C15.6501 3.16879 15.9065 3.78756 15.9065 4.43278V4.51826" stroke="#F1FFF3" stroke-width="2.63004" stroke-linecap="round" stroke-linejoin="round"/>
</svg>
