<svg width="23" height="22" viewBox="0 0 23 22" fill="none" xmlns="http://www.w3.org/2000/svg">
<path d="M21.126 7.79688L21.1267 7.79706C21.3171 7.84466 21.4918 7.93954 21.6347 8.07253C21.7776 8.20551 21.8838 8.37208 21.9439 8.55634C22.004 8.74064 22.016 8.93702 21.979 9.12719C21.942 9.31732 21.857 9.49535 21.7317 9.64449L21.7306 9.64584L18.8553 13.0798C18.8551 13.08 18.855 13.0802 18.8549 13.0804C18.3345 13.7013 18.0732 14.4984 18.1259 15.3068L18.1261 15.3092L18.4278 19.7715C18.4278 19.7717 18.4278 19.772 18.4278 19.7723C18.4381 19.9287 18.4162 20.0855 18.3634 20.2333C18.3104 20.3812 18.2275 20.5171 18.1194 20.6325C18.0114 20.7478 17.8805 20.84 17.7348 20.9033C17.5896 20.9664 17.433 20.9993 17.2744 21C17.1253 20.9997 16.9775 20.9717 16.8389 20.9174C16.8383 20.9171 16.8376 20.9168 16.8369 20.9166L12.6737 19.2514L12.6737 19.2514L12.6667 19.2486C12.2949 19.1031 11.8993 19.028 11.5001 19.0268L11.4926 19.0269C11.0956 19.0288 10.7024 19.104 10.3328 19.2488L10.3328 19.2488L10.3262 19.2514L6.1632 20.9166C6.16252 20.9168 6.16183 20.9171 6.16114 20.9174C6.02254 20.9717 5.87483 20.9997 5.72568 21C5.56704 20.9993 5.41029 20.9664 5.26512 20.9033C5.11944 20.84 4.9886 20.7478 4.88056 20.6325C4.77248 20.5171 4.68953 20.3812 4.6366 20.2333C4.58369 20.0854 4.56179 19.9283 4.57218 19.7717C4.57218 19.7717 4.57219 19.7716 4.57219 19.7715L4.87404 15.3092L4.87419 15.3068C4.92692 14.4984 4.66562 13.7013 4.14522 13.0803C4.14508 13.0802 4.14494 13.08 4.1448 13.0798L1.26935 9.64583L1.26823 9.64449C1.14291 9.49535 1.05795 9.31731 1.02095 9.12719C0.983985 8.93726 0.99606 8.74087 1.05621 8.55634C1.11633 8.37188 1.22256 8.20536 1.3653 8.07253C1.50812 7.93962 1.68291 7.84468 1.87336 7.79706L1.8741 7.79688L6.22747 6.70479L6.22882 6.70445C7.01407 6.5063 7.69384 6.01478 8.12678 5.33034L8.12701 5.32998L10.5209 1.54199L10.5209 1.54203L10.5273 1.53171C10.6275 1.3687 10.7687 1.23376 10.9375 1.14042C11.1063 1.04708 11.2966 0.99866 11.49 1.00008L11.4986 1.00014L11.5071 1.00005C11.7011 0.998154 11.8921 1.04637 12.0613 1.13971C12.2305 1.23301 12.3721 1.36815 12.4727 1.53169L12.4726 1.53172L12.4786 1.54115L14.8671 5.32914L14.8671 5.32915L14.8709 5.33517C15.307 6.01591 15.9862 6.50481 16.7695 6.70401L16.7726 6.70479L21.126 7.79688Z" stroke="#093030" stroke-width="2"/>
</svg>
