<svg width="54" height="49" viewBox="0 0 54 49" fill="none" xmlns="http://www.w3.org/2000/svg">
<path d="M45.4897 19.9073L42.5832 20.3361C42.547 20.339 42.511 20.3285 42.4822 20.3066C42.4534 20.2847 42.4338 20.253 42.4271 20.2176L42.6564 17.7994L39.6399 15.5546L38.1911 14.4687C37.0347 15.1936 35.6845 15.5521 34.319 15.4967C32.9535 15.4413 31.637 14.9746 30.5438 14.1584C29.1048 13.0838 28.1528 11.4849 27.8967 9.71268C27.6406 7.94043 28.1012 6.13945 29.1776 4.70474C29.7115 3.99433 30.3811 3.39569 31.1478 2.94319C31.9145 2.4907 32.7634 2.19322 33.6458 2.06777C34.5283 1.94231 35.4269 1.99139 36.2903 2.21213C37.1536 2.43288 37.9647 2.82095 38.6771 3.35417C39.7695 4.16887 40.5888 5.29338 41.0273 6.57996C41.4659 7.86654 41.5032 9.25504 41.1343 10.5631L51.0831 17.991L52 22.0335L46.0308 23.0099L45.5173 19.9347M2 30.7389L17.4959 16.5675C17.8088 16.2821 18.2177 16.1238 18.6421 16.1238C19.0665 16.1238 19.4754 16.2821 19.7883 16.5675L35.2752 30.7389M5.89689 27.1801V17.8268H10.8483M33.5238 6.97692C34.0097 9.95173 32.3318 13.9121 28.9391 17.0146C25.7574 19.9621 21.9338 21.3582 19.0363 20.9202M15.4053 18.4746C13.7824 15.4633 15.4054 10.5358 19.4124 6.81268C23.0801 3.39986 27.6647 2.06756 30.608 3.25383M30.0486 46.9909H7.22643C6.8957 46.9909 6.57851 46.8601 6.34465 46.6274C6.11079 46.3947 5.97931 46.079 5.97931 45.7499V27.8006C5.97951 27.629 6.01553 27.4593 6.08497 27.3022C6.15441 27.1452 6.25594 27.0042 6.38293 26.8881L17.7986 16.4489C18.0287 16.2385 18.3297 16.1218 18.6421 16.1218C18.9545 16.1218 19.2557 16.2385 19.4858 16.4489L30.8923 26.8881C31.0193 27.0042 31.1206 27.1452 31.19 27.3022C31.2595 27.4593 31.2955 27.629 31.2957 27.8006V45.7499C31.2957 45.9128 31.2635 46.0742 31.2008 46.2248C31.1381 46.3753 31.0462 46.5122 30.9304 46.6274C30.8146 46.7426 30.6772 46.834 30.5259 46.8964C30.3746 46.9588 30.2124 46.9909 30.0486 46.9909ZM16.3498 38.2124H20.9345C21.3527 38.2124 21.7539 38.3778 22.0496 38.6721C22.3454 38.9665 22.5116 39.3657 22.5116 39.782V47H14.7819V39.7728C14.7843 39.3597 14.9503 38.9642 15.2438 38.6721C15.5373 38.38 15.9347 38.2148 16.3498 38.2124Z" stroke="#F1FFF3" stroke-width="3" stroke-linecap="round" stroke-linejoin="round"/>
</svg>
