<svg width="23" height="28" viewBox="0 0 23 28" fill="none" xmlns="http://www.w3.org/2000/svg">
<path d="M20.7079 22.1594L20.7172 21.1594H20.7079V22.1594ZM21.7112 20.0639L20.9074 20.6588L20.9213 20.6775L20.936 20.6956L21.7112 20.0639ZM19.3962 14.7256L20.3799 14.5452L20.3775 14.5331L19.3962 14.7256ZM17.4105 5.54203L18.186 4.91064L18.1839 4.90811L17.4105 5.54203ZM11.5004 2.73406L11.5026 1.73405L11.4972 1.73406L11.5004 2.73406ZM5.59025 5.54203L4.81745 4.90736L4.81478 4.91065L5.59025 5.54203ZM3.60973 14.7256L2.6283 14.5334L2.62613 14.5452L3.60973 14.7256ZM1.2948 20.0639L2.06437 20.7024L2.08208 20.6811L2.09858 20.6588L1.2948 20.0639ZM2.2981 22.1594V21.1594H2.28903L2.27995 21.1595L2.2981 22.1594ZM10.5056 2.73407C10.5056 3.28636 10.9533 3.73407 11.5056 3.73407C12.0579 3.73407 12.5056 3.28636 12.5056 2.73407H10.5056ZM12.5056 1C12.5056 0.447715 12.0579 0 11.5056 0C10.9533 0 10.5056 0.447715 10.5056 1H12.5056ZM11.5004 27L11.5024 26L11.5004 26L11.5004 27ZM20.6986 23.1593C21.1324 23.1634 21.5582 23.0434 21.9261 22.8137L20.8669 21.1172C20.8218 21.1454 20.7699 21.1599 20.7172 21.1594L20.6986 23.1593ZM21.9261 22.8137C22.294 22.584 22.5887 22.2542 22.7759 21.8632L20.972 20.9995C20.9486 21.0483 20.9121 21.089 20.8669 21.1172L21.9261 22.8137ZM22.7759 21.8632C22.9631 21.4722 23.0352 21.036 22.984 20.6057L20.998 20.8421C21.0044 20.8961 20.9953 20.9507 20.972 20.9995L22.7759 21.8632ZM22.984 20.6057C22.9328 20.1753 22.7602 19.7682 22.4864 19.4321L20.936 20.6956C20.9699 20.7373 20.9916 20.7881 20.998 20.8421L22.984 20.6057ZM22.515 19.469C21.4374 18.013 20.7069 16.3286 20.3798 14.5452L18.4126 14.9059C18.7947 16.9893 19.6481 18.9574 20.9074 20.6588L22.515 19.469ZM20.3775 14.5331C20.2372 13.8176 20.1766 13.0762 20.1345 12.2918C20.0936 11.5302 20.069 10.6862 19.9949 9.87927C19.8435 8.23056 19.4706 6.48844 18.186 4.91065L16.6351 6.17341C17.5556 7.30406 17.8673 8.58208 18.0033 10.0622C18.0729 10.8197 18.0927 11.5673 18.1374 12.3991C18.1808 13.2081 18.247 14.0619 18.4149 14.9181L20.3775 14.5331ZM18.1839 4.90811C17.3727 3.91842 16.3531 3.12048 15.198 2.57168L14.3398 4.37815C15.2281 4.80022 16.0127 5.4141 16.6371 6.17595L18.1839 4.90811ZM15.198 2.57168C14.0429 2.02287 12.781 1.73685 11.5026 1.73406L11.4982 3.73406C12.4811 3.7362 13.4514 3.95609 14.3398 4.37815L15.198 2.57168ZM11.4972 1.73406C10.2193 1.73808 8.95807 2.02463 7.80343 2.57321L8.66171 4.37969C9.5502 3.95756 10.5205 3.73715 11.5035 3.73405L11.4972 1.73406ZM7.80343 2.57321C6.64881 3.12179 5.6293 3.91883 4.81746 4.90737L6.36304 6.17669C6.9883 5.41535 7.77321 4.80183 8.66171 4.37969L7.80343 2.57321ZM4.81478 4.91065C3.52993 6.48871 3.15849 8.22983 3.00839 9.87809C2.93495 10.6846 2.91104 11.5287 2.87062 12.2902C2.82899 13.0747 2.76874 13.8167 2.62837 14.5334L4.59108 14.9178C4.75903 14.0602 4.82485 13.2057 4.86781 12.3962C4.91198 11.5639 4.93119 10.8167 5.00015 10.0595C5.13486 8.5802 5.44537 7.3038 6.36572 6.17341L4.81478 4.91065ZM2.62613 14.5452C2.29908 16.3286 1.56861 18.013 0.49101 19.469L2.09858 20.6588C3.3579 18.9574 4.21127 16.9893 4.59333 14.9059L2.62613 14.5452ZM0.525221 19.4253C0.246795 19.7609 0.0706064 20.1692 0.0171981 20.6017L2.00212 20.8468C2.00872 20.7934 2.03045 20.7433 2.06437 20.7024L0.525221 19.4253ZM0.0171981 20.6017C-0.0362135 21.0343 0.0353794 21.4732 0.223617 21.8663L2.02751 21.0026C2.00439 20.9544 1.99553 20.9002 2.00212 20.8468L0.0171981 20.6017ZM0.223617 21.8663C0.411846 22.2595 0.708909 22.5906 1.07992 22.8199L2.13162 21.1188C2.0869 21.0911 2.05064 21.0509 2.02751 21.0026L0.223617 21.8663ZM1.07992 22.8199C1.45093 23.0493 1.88005 23.1671 2.31625 23.1592L2.27995 21.1595C2.22781 21.1605 2.17634 21.1464 2.13162 21.1188L1.07992 22.8199ZM2.2981 23.1594H20.7079V21.1594H2.2981V23.1594ZM12.5056 2.73407V1H10.5056V2.73407H12.5056ZM13.1445 24.3512C13.145 24.5681 13.1026 24.783 13.0201 24.9835L14.8693 25.7454C15.0519 25.302 15.1455 24.8268 15.1445 24.3472L13.1445 24.3512ZM13.0201 24.9835C12.9375 25.1839 12.8163 25.3658 12.6636 25.5189L14.0796 26.9313C14.4182 26.5918 14.6866 26.1888 14.8693 25.7454L13.0201 24.9835ZM12.6636 25.5189C12.5109 25.672 12.3297 25.7932 12.1305 25.8757L12.8957 27.7235C13.3387 27.5401 13.741 27.2708 14.0796 26.9313L12.6636 25.5189ZM12.1305 25.8757C11.9312 25.9582 11.7178 26.0004 11.5024 26L11.4984 28C11.9779 28.0009 12.4527 27.907 12.8957 27.7235L12.1305 25.8757ZM11.5004 26C11.2853 26 11.0721 25.9575 10.8733 25.8748L10.1053 27.7215C10.5475 27.9053 11.0216 28 11.5004 28L11.5004 26ZM10.8733 25.8748C10.6744 25.7921 10.4936 25.6708 10.3412 25.5177L8.92383 26.9288C9.26172 27.2682 9.6632 27.5376 10.1053 27.7215L10.8733 25.8748ZM10.3412 25.5177C10.1889 25.3647 10.068 25.1829 9.98563 24.9827L8.13607 25.7437C8.3183 26.1866 8.58593 26.5894 8.92383 26.9288L10.3412 25.5177ZM9.98563 24.9827C9.90326 24.7825 9.86105 24.5679 9.86148 24.3512L7.86148 24.3472C7.86053 24.8262 7.95382 25.3007 8.13607 25.7437L9.98563 24.9827Z" fill="#093030"/>
</svg>
