<svg width="20" height="20" viewBox="0 0 20 20" fill="none" xmlns="http://www.w3.org/2000/svg">
<path fill-rule="evenodd" clip-rule="evenodd" d="M10 7C8.34315 7 7 8.34315 7 10C7 11.6569 8.34315 13 10 13C11.6569 13 13 11.6569 13 10C13 8.34315 11.6569 7 10 7ZM9 10C9 9.44772 9.44772 9 10 9C10.5523 9 11 9.44772 11 10C11 10.5523 10.5523 11 10 11C9.44772 11 9 10.5523 9 10Z" fill="#DFF7E2"/>
<path fill-rule="evenodd" clip-rule="evenodd" d="M12.676 0.362373C11.5926 0.0621167 10.5984 0.763577 10.3257 1.71815L10.2452 1.99998L9.75379 1.99997L9.67331 1.71829C9.40057 0.763675 8.40632 0.0622053 7.3229 0.362546C6.53043 0.58223 5.77768 0.896902 5.07778 1.29334C4.09991 1.84721 3.89238 3.04597 4.37472 3.91418L4.51659 4.16955L4.16912 4.51702L3.91383 4.37519C3.04559 3.89284 1.8468 4.1004 1.29295 5.07831C0.896558 5.7782 0.581926 6.53091 0.362273 7.32334C0.0619648 8.40675 0.763433 9.40097 1.71803 9.67371L1.99998 9.75427L1.99998 10.2457L1.71803 10.3262C0.763431 10.599 0.0619637 11.5932 0.362271 12.6766C0.581923 13.469 0.896554 14.2217 1.29294 14.9216C1.84679 15.8995 3.04558 16.1071 3.91382 15.6247L4.16912 15.4829L4.51659 15.8304L4.37472 16.0858C3.89237 16.954 4.09991 18.1527 5.07777 18.7066C5.77765 19.103 6.53037 19.4177 7.3228 19.6374C8.40622 19.9377 9.40048 19.2363 9.67323 18.2816L9.75371 18L10.2451 18L10.3256 18.2818C10.5984 19.2364 11.5925 19.9378 12.6759 19.6376C13.4685 19.418 14.2213 19.1033 14.9213 18.7069C15.8993 18.153 16.1068 16.9542 15.6245 16.086L15.4827 15.8307L15.8301 15.4833L16.0855 15.6251C16.9537 16.1075 18.1525 15.8999 18.7063 14.9221C19.1028 14.2221 19.4176 13.4692 19.6373 12.6766C19.9376 11.5932 19.2361 10.599 18.2815 10.3262L17.9995 10.2457V9.75427L18.2815 9.6737C19.2361 9.40095 19.9376 8.40673 19.6373 7.32332C19.4176 6.53085 19.1029 5.77809 18.7065 5.07817C18.1526 4.10027 16.9539 3.89273 16.0856 4.37508L15.8301 4.51702L15.4827 4.16955L15.6246 3.91407C16.107 3.04583 15.8994 1.84705 14.9215 1.29319C14.2215 0.896721 13.4686 0.582038 12.676 0.362373ZM12.1682 2.54942L12.2349 2.31612C12.8023 2.48085 13.3438 2.70684 13.8519 2.98659L13.7344 3.19826C13.3007 3.97885 13.437 4.95234 14.0685 5.58376L14.4159 5.93123C15.0473 6.56265 16.0208 6.69899 16.8014 6.26533L17.0131 6.14773C17.2928 6.65576 17.5188 7.19721 17.6835 7.76452L17.4501 7.83122C16.5914 8.07654 15.9995 8.86131 15.9995 9.75427V10.2457C15.9995 11.1386 16.5914 11.9234 17.45 12.1687L17.6835 12.2354C17.5188 12.8028 17.2928 13.3444 17.013 13.8525L16.8014 13.7349C16.0208 13.3013 15.0473 13.4376 14.4159 14.069L14.0685 14.4165C13.437 15.0479 13.3007 16.0214 13.7344 16.802L13.8518 17.0134C13.3437 17.2932 12.8022 17.5191 12.2348 17.6838L12.1682 17.4505C11.9228 16.5919 11.1381 16 10.2451 16H9.75371C8.86075 16 8.07597 16.5919 7.83066 17.4505L7.76405 17.6837C7.19678 17.5189 6.65537 17.2929 6.14737 17.0132L6.26491 16.8017C6.69857 16.0211 6.56223 15.0476 5.93081 14.4162L5.58334 14.0687C4.95192 13.4373 3.97843 13.3009 3.19784 13.7346L2.98635 13.8521C2.70666 13.3441 2.48072 12.8027 2.316 12.2354L2.54942 12.1687C3.40803 11.9234 3.99998 11.1386 3.99998 10.2457V9.75427C3.99998 8.86131 3.40803 8.07654 2.54942 7.83122L2.316 7.76453C2.48072 7.19726 2.70667 6.65585 2.98636 6.14785L3.19784 6.26534C3.97843 6.699 4.95192 6.56266 5.58334 5.93124L5.93081 5.58377C6.56222 4.95235 6.69857 3.97886 6.26491 3.19827L6.14738 2.98671C6.6554 2.70698 7.19683 2.48101 7.76413 2.31627L7.83075 2.54942C8.07606 3.40802 8.86083 3.99997 9.75379 3.99997H10.2452C11.1382 3.99997 11.9229 3.40802 12.1682 2.54942ZM6.14738 2.98671C6.1193 3.00217 6.09133 3.01779 6.06346 3.03357C6.07671 3.02607 6.09141 3.0136 6.10321 2.99757C6.11435 2.98244 6.11948 2.96893 6.12164 2.96009C6.12394 2.95068 6.12334 2.9452 6.12286 2.94299L6.14738 2.98671ZM2.98636 6.14785L2.94254 6.12351C2.94474 6.12398 2.95032 6.12441 2.95973 6.12211C2.96857 6.11995 2.98209 6.11483 2.99722 6.10368C3.01324 6.09188 3.02572 6.07718 3.03322 6.06393C3.01743 6.0918 3.00181 6.11977 2.98636 6.14785ZM2.316 7.76453C2.30702 7.79547 2.29822 7.82649 2.2896 7.85758C2.2937 7.8428 2.29528 7.82347 2.29228 7.80368C2.28945 7.78499 2.28348 7.77172 2.27873 7.7639C2.27366 7.75555 2.26933 7.75208 2.26742 7.75085L2.316 7.76453ZM2.316 12.2354L2.26747 12.2493C2.26672 12.2495 2.26638 12.2496 2.26639 12.2497C2.26639 12.2497 2.26603 12.2499 2.26639 12.2497C2.26638 12.2496 2.26672 12.2495 2.26747 12.2493C2.26938 12.248 2.27365 12.2444 2.27872 12.236C2.28348 12.2282 2.28945 12.215 2.29228 12.1963C2.29528 12.1765 2.29369 12.1571 2.2896 12.1424C2.29822 12.1735 2.30702 12.2045 2.316 12.2354ZM2.98635 13.8521C3.00181 13.8802 3.01743 13.9081 3.03321 13.936C3.02571 13.9228 3.01324 13.9081 2.99722 13.8963C2.98208 13.8851 2.96857 13.88 2.95973 13.8778C2.95032 13.8755 2.94484 13.8761 2.94263 13.8766C2.94218 13.8767 2.94281 13.8765 2.94263 13.8766L2.98635 13.8521ZM6.14737 17.0132L6.12303 17.057C6.12226 17.0584 6.12271 17.0586 6.12303 17.057C6.12351 17.0548 6.12393 17.0493 6.12164 17.0399C6.11948 17.031 6.11435 17.0175 6.10321 17.0024C6.0914 16.9863 6.07671 16.9739 6.06346 16.9664C6.09133 16.9822 6.1193 16.9978 6.14737 17.0132ZM7.76405 17.6837C7.79499 17.6926 7.82601 17.7014 7.8571 17.7101C7.84233 17.706 7.823 17.7044 7.8032 17.7074C7.7845 17.7102 7.77124 17.7162 7.76341 17.7209C7.75507 17.726 7.75159 17.7303 7.75037 17.7322C7.74953 17.7335 7.74994 17.7338 7.75037 17.7322L7.76405 17.6837ZM12.2348 17.6838L12.2487 17.7324C12.2491 17.7339 12.2495 17.7337 12.2487 17.7324C12.2475 17.7305 12.2438 17.7262 12.2355 17.7211C12.2276 17.7164 12.2144 17.7104 12.1957 17.7076C12.1759 17.7046 12.1565 17.7062 12.1418 17.7102C12.1729 17.7016 12.2039 17.6928 12.2348 17.6838ZM13.8518 17.0134C13.8799 16.998 13.9079 16.9824 13.9357 16.9666C13.9225 16.9741 13.9078 16.9865 13.896 17.0026C13.8848 17.0177 13.8797 17.0312 13.8775 17.0401C13.8753 17.0495 13.8758 17.0549 13.8763 17.0571C13.8766 17.0587 13.8771 17.0585 13.8763 17.0571L13.8518 17.0134ZM17.013 13.8525L17.0568 13.8768C17.0582 13.8776 17.0583 13.8771 17.0568 13.8768C17.0546 13.8763 17.049 13.8759 17.0396 13.8782C17.0308 13.8804 17.0172 13.8855 17.0021 13.8966C16.9861 13.9084 16.9736 13.9231 16.9661 13.9364C16.9819 13.9085 16.9975 13.8805 17.013 13.8525ZM17.6835 12.2354C17.6925 12.2045 17.7013 12.1735 17.7099 12.1424C17.7058 12.1572 17.7042 12.1765 17.7072 12.1963C17.7101 12.215 17.7161 12.2282 17.7208 12.2361C17.7259 12.2444 17.7302 12.2479 17.7321 12.2491C17.7334 12.2499 17.7336 12.2495 17.7321 12.2491L17.6835 12.2354ZM17.6835 7.76452L17.7321 7.75065C17.7302 7.75187 17.7259 7.75554 17.7208 7.76388C17.716 7.7717 17.7101 7.78497 17.7072 7.80366C17.7042 7.82346 17.7058 7.84279 17.7099 7.85756C17.7013 7.82647 17.6925 7.79545 17.6835 7.76452ZM17.0569 6.12339L17.0131 6.14773C16.9977 6.11966 16.982 6.09168 16.9662 6.06382C16.9738 6.07706 16.9862 6.09176 17.0022 6.10356C17.0174 6.11471 17.0309 6.11984 17.0397 6.12199C17.0491 6.12429 17.0547 6.12387 17.0569 6.12339ZM17.0579 6.12293C17.0579 6.12291 17.058 6.12289 17.0579 6.12293ZM13.8519 2.98659L13.8763 2.94278C13.8758 2.94498 13.8754 2.95056 13.8777 2.95997C13.8798 2.96881 13.885 2.98233 13.8961 2.99746C13.9079 3.01348 13.9226 3.02595 13.9359 3.03346C13.908 3.01767 13.88 3.00205 13.8519 2.98659Z" fill="#DFF7E2"/>
</svg>
