<svg width="70" height="39" viewBox="0 0 70 39" fill="none" xmlns="http://www.w3.org/2000/svg">
<path d="M32.3074 23.25L21.7774 34.6C20.9774 35.6 21.5475 37.35 22.6875 37.35H25.8374C26.1478 37.352 26.4537 37.2764 26.7273 37.13L45.9375 25.75M29.4274 11.17L24.2673 4.38995C23.6673 3.38995 24.2074 2.01 25.1774 2H27.6774C28.1391 2.00653 28.5843 2.17256 28.9375 2.46997L45.1174 14.59M45.9374 25.79C45.9374 25.79 65.0772 26.9999 67.4972 24.3199C68.5472 23.1599 67.7672 21.2099 66.9972 20.3199C64.9972 18.1199 62.9072 15.8599 59.9972 15.0699C55.2072 13.7699 49.9974 14.37 45.1474 14.5L15.4574 15.85L6.34731 5.84998C5.68854 5.35858 4.88914 5.09211 4.06728 5.08997C1.51728 5.08997 1.90722 5.91 2.24722 6.62L8.07729 18.78C7.99604 19.0321 7.89224 19.2764 7.76724 19.5099C7.56977 20.0611 7.52497 20.6554 7.63735 21.23C8.06735 23.05 10.0173 23.29 11.5873 23.42C13.5873 23.57 15.5874 23.78 17.6474 23.94C21.9574 24.27 26.2573 24.59 30.5473 25.13M64.7173 17.97C64.7173 17.97 64.1675 19.9 59.1975 19.7" stroke="#F1FFF3" stroke-width="3" stroke-linecap="round" stroke-linejoin="round"/>
</svg>
