<svg width="17" height="21" viewBox="0 0 17 21" fill="none" xmlns="http://www.w3.org/2000/svg">
<path d="M1.52402 13.739C1.15718 14.6682 0.979645 15.6612 1.00185 16.6599C1.00185 20.8011 15.9907 20.8011 15.9981 16.6599C16.0204 15.6612 15.8429 14.6682 15.476 13.739C15.1092 12.8098 14.5604 11.9633 13.8619 11.2492C13.1635 10.535 12.3294 9.96755 11.4086 9.58015C10.4878 9.19274 9.49895 8.99318 8.5 8.99318C7.50105 8.99318 6.51217 9.19274 5.5914 9.58015C4.67063 9.96755 3.83654 10.535 3.13807 11.2492C2.4396 11.9633 1.89086 12.8098 1.52402 13.739Z" stroke="#2C2C28" stroke-width="1.5" stroke-linecap="round" stroke-linejoin="round"/>
<path d="M8.49445 7.02077C10.157 7.02077 11.5048 5.67297 11.5048 4.01038C11.5048 2.34779 10.157 1 8.49445 1C6.83186 1 5.48407 2.34779 5.48407 4.01038C5.48407 5.67297 6.83186 7.02077 8.49445 7.02077Z" stroke="#2C2C28" stroke-width="1.5" stroke-linecap="round" stroke-linejoin="round"/>
</svg>
