<svg width="22" height="23" viewBox="0 0 22 23" fill="none" xmlns="http://www.w3.org/2000/svg">
<path d="M5.2447 19.8295C3.80178 18.7768 2.65319 17.3472 1.91563 15.6858C1.17806 14.0244 0.877724 12.1903 1.0451 10.3697C1.29912 7.6357 2.58994 5.11806 4.63393 3.36995C6.67791 1.62183 9.30788 0.786235 11.946 1.04675C13.2533 1.17533 14.5234 1.56958 15.6838 2.20699C16.8441 2.8444 17.872 3.71248 18.7086 4.76165C19.5452 5.81082 20.1742 7.02054 20.5596 8.3217C20.9451 9.62286 21.0794 10.99 20.955 12.345C20.7003 15.0786 19.4093 17.5958 17.3655 19.3437C15.3217 21.0917 12.6921 21.9276 10.0542 21.6679C9.44055 21.6045 8.83373 21.4836 8.24115 21.3066M9.33175 17.726C12.3226 20.1412 15.5468 20.9016 17.3683 19.3401C19.7519 17.3007 18.8299 12.0711 15.3106 7.65728L14.6725 6.97263M12.1765 4.60403C9.329 2.48598 6.34661 1.88582 4.62069 3.36292C2.23982 5.4023 3.16176 10.6319 6.67826 15.0457M15.2966 5.70821C17.7225 5.39647 19.558 5.83058 20.092 7.04256C21.0168 9.1373 17.6943 12.7645 12.6712 15.1447C7.64802 17.525 2.83286 17.7668 1.90525 15.6604C0.977636 13.554 4.30303 9.93848 9.32618 7.55823C10.1504 7.16609 10.995 6.82178 11.856 6.52688M15.0436 5.9879C15.0436 6.79241 14.4144 7.4446 13.6381 7.4446C12.8619 7.4446 12.2327 6.79241 12.2327 5.9879C12.2327 5.18338 12.8619 4.53119 13.6381 4.53119C14.4144 4.53119 15.0436 5.18338 15.0436 5.9879ZM8.20178 20.5433C8.20178 21.3478 7.57253 22 6.79631 22C6.02009 22 5.39084 21.3478 5.39084 20.5433C5.39084 19.7388 6.02009 19.0866 6.79631 19.0866C7.57253 19.0866 8.20178 19.7388 8.20178 20.5433Z" stroke="#093030" stroke-width="1.3" stroke-linecap="round" stroke-linejoin="round"/>
</svg>
