<svg width="55" height="50" viewBox="0 0 55 50" fill="none" xmlns="http://www.w3.org/2000/svg">
<path d="M23.4199 45.75C21.4868 46.595 19.3996 47.0308 17.2898 47.03C13.2337 47.0274 9.34468 45.4142 6.47754 42.5452C3.61039 39.6762 2 35.7861 2 31.73C2 27.6739 3.61039 23.7838 6.47754 20.9148C9.34468 18.0458 13.2337 16.4326 17.2898 16.43C19.299 16.43 21.2887 16.8258 23.145 17.5947C25.0013 18.3636 26.6879 19.4905 28.1086 20.9113C29.5294 22.332 30.6564 24.0187 31.4253 25.8749C32.1942 27.7312 32.5898 29.7208 32.5898 31.73C32.594 35.6978 31.0514 39.511 28.2898 42.36M18.46 41.08C18.0719 41.1287 17.6809 41.1521 17.2898 41.15C14.7915 41.15 12.3955 40.1575 10.6289 38.3909C8.86231 36.6243 7.86987 34.2283 7.86987 31.73C7.86987 29.2316 8.86231 26.8356 10.6289 25.069C12.3955 23.3024 14.7915 22.31 17.2898 22.31C19.7881 22.31 22.1843 23.3024 23.9509 25.069C25.7175 26.8356 26.71 29.2316 26.71 31.73C26.7095 33.0512 26.4304 34.3575 25.8911 35.5637C25.3518 36.7698 24.5642 37.8487 23.5798 38.73M23.4199 17.71C26.1429 15.9208 29.3317 14.9715 32.5899 14.98M32.5899 14.98C37.0322 14.98 41.2926 16.7447 44.4338 19.886C47.5751 23.0272 49.3399 27.2876 49.3399 31.73C49.3399 36.1724 47.5751 40.4328 44.4338 43.574C41.2926 46.7153 37.0322 48.48 32.5899 48.48C28.1561 48.4667 23.9085 46.6962 20.7781 43.5564C17.6477 40.4166 15.8899 36.1637 15.8899 31.73C15.8864 28.578 16.7739 25.4893 18.45 22.82M32.5899 14.98L23.5899 4.43L25.5499 2M32.5899 14.98L41.5899 4.43L39.6399 2H25.5499M28.2898 21.1C29.656 20.5477 31.1164 20.2659 32.5899 20.27C34.0948 20.27 35.585 20.5664 36.9754 21.1423C38.3658 21.7182 39.6292 22.5623 40.6934 23.6265C41.7576 24.6907 42.6016 25.954 43.1775 27.3444C43.7535 28.7348 44.0499 30.225 44.0499 31.73C44.0499 33.2349 43.7535 34.7251 43.1775 36.1155C42.6016 37.5059 41.7576 38.7693 40.6934 39.8334C39.6292 40.8976 38.3658 41.7418 36.9754 42.3177C35.585 42.8936 34.0948 43.19 32.5899 43.19C29.5505 43.19 26.6355 41.9826 24.4864 39.8334C22.3372 37.6843 21.1299 34.7693 21.1299 31.73C21.123 29.3321 21.8755 26.9936 23.2798 25.05M25.5499 2L37.1899 9.58M50.5999 12.24V17.72M53.3399 14.98H47.8599M16.4699 2V7.48M19.2099 4.74H13.7299" stroke="#F1FFF3" stroke-width="3" stroke-linecap="round" stroke-linejoin="round"/>
</svg>
